<svg width="49" height="46" viewBox="0 0 49 46" fill="none" xmlns="http://www.w3.org/2000/svg">
<path d="M36.897 26.6337C32.34 26.6337 28.518 29.8533 27.538 34.1381C25.2105 33.1456 23.079 33.4119 21.462 34.1139C20.4575 29.8049 16.6355 26.6337 12.103 26.6337C6.7865 26.6337 2.45 30.9669 2.45 36.3168C2.45 41.6668 6.7865 46 12.103 46C17.15 46 21.266 42.0783 21.658 37.0915C22.491 36.5105 24.6715 35.4212 27.342 37.1399C27.783 42.1025 31.85 46 36.897 46C42.2135 46 46.55 41.6668 46.55 36.3168C46.55 30.9669 42.2135 26.6337 36.897 26.6337ZM12.103 43.2403C8.281 43.2403 5.2185 40.1417 5.2185 36.3168C5.2185 32.492 8.3055 29.3934 12.103 29.3934C15.925 29.3934 18.9875 32.492 18.9875 36.3168C18.9875 40.1417 15.925 43.2403 12.103 43.2403ZM36.897 43.2403C33.075 43.2403 30.0125 40.1417 30.0125 36.3168C30.0125 32.492 33.075 29.3934 36.897 29.3934C40.719 29.3934 43.806 32.492 43.806 36.3168C43.806 40.1417 40.6945 43.2403 36.897 43.2403ZM49 20.5817H0V24.2129H49V20.5817ZM33.1485 1.53011C32.6095 0.34392 31.2375 -0.285485 29.939 0.126049L24.5 1.91743L19.0365 0.126049L18.914 0.101841C17.6155 -0.261277 16.2435 0.416544 15.7535 1.65115L9.8 16.9505H39.2L33.222 1.65115L33.1485 1.53011Z" fill="#13829B"/>
</svg>
