<svg width="47" height="46" viewBox="0 0 47 46" fill="none" xmlns="http://www.w3.org/2000/svg">
<path d="M25.3116 46V41.3769C26.9296 41.1457 28.4992 40.7027 30.0202 40.0477C31.5427 39.3928 32.9782 38.5645 34.3266 37.5628L37.6784 40.9146C35.8677 42.34 33.9221 43.4866 31.8417 44.3542C29.7613 45.2202 27.5846 45.7688 25.3116 46ZM40.9146 37.5628L37.6784 34.3266C38.6801 33.0553 39.4891 31.6583 40.1055 30.1358C40.7219 28.6148 41.1457 27.0067 41.3769 25.3116H46.1156C45.8074 27.7002 45.2202 29.9247 44.3542 31.985C43.4866 34.0469 42.34 35.9062 40.9146 37.5628ZM41.3769 20.6884C41.1457 18.9548 40.7219 17.3267 40.1055 15.8041C39.4891 14.2831 38.6801 12.9062 37.6784 11.6734L40.9146 8.43718C42.3786 10.1323 43.5636 12.0201 44.4697 14.1005C45.3743 16.1809 45.9229 18.3769 46.1156 20.6884H41.3769ZM20.6884 46C14.794 45.3065 9.87266 42.7738 5.92452 38.4019C1.97484 34.0284 0 28.8945 0 23C0 17.0285 1.97484 11.866 5.92452 7.51256C9.87266 3.15913 14.794 0.654941 20.6884 0V4.62312C16.0653 5.27806 12.232 7.3392 9.18844 10.8065C6.14489 14.2739 4.62311 18.3384 4.62311 23C4.62311 27.6231 6.14489 31.6683 9.18844 35.1357C12.232 38.603 16.0653 40.6834 20.6884 41.3769V46ZM34.4422 8.43718C33.0553 7.39698 31.5913 6.54941 30.0502 5.89447C28.5092 5.23953 26.9296 4.81575 25.3116 4.62312V0C27.5846 0.19263 29.7613 0.721977 31.8417 1.58804C33.9221 2.45564 35.8677 3.62144 37.6784 5.08543L34.4422 8.43718ZM23.0578 34.5578C19.9372 31.8995 17.6164 29.4431 16.0954 27.1885C14.5728 24.9355 13.8116 22.8459 13.8116 20.9196C13.8116 18.0301 14.7462 15.7286 16.6155 14.015C18.4832 12.2998 20.6306 11.4422 23.0578 11.4422C25.4849 11.4422 27.6331 12.2998 29.5024 14.015C31.3701 15.7286 32.304 18.0301 32.304 20.9196C32.304 22.8459 31.5427 24.9355 30.0202 27.1885C28.4992 29.4431 26.1784 31.8995 23.0578 34.5578ZM23.0578 23C23.7513 23 24.3392 22.7596 24.8215 22.2788C25.3023 21.7964 25.5427 21.2085 25.5427 20.5151C25.5427 19.8601 25.3023 19.2822 24.8215 18.7814C24.3392 18.2806 23.7513 18.0301 23.0578 18.0301C22.3643 18.0301 21.7772 18.2806 21.2964 18.7814C20.814 19.2822 20.5729 19.8601 20.5729 20.5151C20.5729 21.2085 20.814 21.7964 21.2964 22.2788C21.7772 22.7596 22.3643 23 23.0578 23Z" fill="#13829B"/>
</svg>
