<svg width="53" height="35" viewBox="0 0 53 35" fill="none" xmlns="http://www.w3.org/2000/svg">
<path d="M52.5705 8.21414H36.1422V11.4998H42.7135V16.4283H9.85696V11.4998H16.4283V8.21414H0V11.4998H6.57131V19.7139H15.0023L9.85696 27.4303V34.4994H13.1426V28.4258L18.95 19.7139H33.6205L39.4279 28.4258V34.4994H42.7135V27.4303L37.5682 19.7139H45.9992V11.4998H52.5705V8.21414ZM26.2852 2.90528e-06C24.991 -0.000470667 23.7094 0.254711 22.514 0.750897C21.3187 1.24708 20.2331 1.9745 19.3197 2.89138L21.641 5.21269C22.2504 4.60202 22.9743 4.11754 23.7713 3.78697C24.5682 3.45641 25.4225 3.28626 26.2852 3.28626C27.148 3.28626 28.0023 3.45641 28.7992 3.78697C29.5961 4.11754 30.3201 4.60202 30.9295 5.21269L33.2525 2.88974C32.3387 1.97288 31.2528 1.24561 30.0572 0.749698C28.8615 0.253785 27.5797 -0.00099246 26.2852 2.90528e-06Z" fill="#13829B"/>
</svg>
