<svg width="53" height="46" viewBox="0 0 53 46" fill="none" xmlns="http://www.w3.org/2000/svg">
<path d="M6.25313 5.75C5.43854 5.75 4.75525 5.47496 4.20325 4.92487C3.65317 4.37287 3.37812 3.68958 3.37812 2.875C3.37812 2.06042 3.65317 1.37713 4.20325 0.825126C4.75525 0.275042 5.43854 0 6.25313 0H46.5031C47.3177 0 48 0.275042 48.5501 0.825126C49.1021 1.37713 49.3781 2.06042 49.3781 2.875C49.3781 3.68958 49.1021 4.37287 48.5501 4.92487C48 5.47496 47.3177 5.75 46.5031 5.75H6.25313ZM6.25313 46C5.43854 46 4.75525 45.724 4.20325 45.172C3.65317 44.6219 3.37812 43.9396 3.37812 43.125V28.75H2.875C1.96458 28.75 1.22188 28.4021 0.646875 27.7064C0.0718751 27.0125 -0.119792 26.2104 0.071875 25.3L2.94687 10.925C3.09062 10.2542 3.42604 9.70312 3.95312 9.27187C4.48021 8.84062 5.07917 8.625 5.75 8.625H47.0062C47.6771 8.625 48.276 8.84062 48.8031 9.27187C49.3302 9.70312 49.6656 10.2542 49.8094 10.925L52.6844 25.3C52.876 26.2104 52.6844 27.0125 52.1094 27.7064C51.5344 28.4021 50.7917 28.75 49.8812 28.75H49.3781V43.125C49.3781 43.9396 49.1021 44.6219 48.5501 45.172C48 45.724 47.3177 46 46.5031 46C45.6885 46 45.0062 45.724 44.4561 45.172C43.9041 44.6219 43.6281 43.9396 43.6281 43.125V28.75H32.1281V43.125C32.1281 43.9396 31.8531 44.6219 31.303 45.172C30.751 45.724 30.0677 46 29.2531 46H6.25313ZM9.12813 40.25H26.3781V28.75H9.12813V40.25ZM6.39688 23H46.3594H6.39688ZM6.39688 23H46.3594L44.6344 14.375H8.12187L6.39688 23Z" fill="#13829B"/>
</svg>
